<?xml version="1.0" encoding="UTF-8" standalone="no"?>
<!-- Created with Inkscape (http://www.inkscape.org/) -->

<svg
   width="1200"
   height="1200"
   viewBox="0 0 317.49999 317.49999"
   version="1.1"
   id="svg4075"
   inkscape:version="1.2 (dc2aedaf03, 2022-05-15)"
   sodipodi:docname="tree_Reference_.svg"
   inkscape:export-filename="md-tree.svg"
   inkscape:export-xdpi="96"
   inkscape:export-ydpi="96"
   xmlns:inkscape="http://www.inkscape.org/namespaces/inkscape"
   xmlns:sodipodi="http://sodipodi.sourceforge.net/DTD/sodipodi-0.dtd"
   xmlns="http://www.w3.org/2000/svg"
   xmlns:svg="http://www.w3.org/2000/svg">
  <sodipodi:namedview
     id="namedview4077"
     pagecolor="#ffffff"
     bordercolor="#cccccc"
     borderopacity="1"
     inkscape:showpageshadow="0"
     inkscape:pageopacity="1"
     inkscape:pagecheckerboard="0"
     inkscape:deskcolor="#d1d1d1"
     inkscape:document-units="px"
     showgrid="false"
     inkscape:zoom="0.5"
     inkscape:cx="559"
     inkscape:cy="468"
     inkscape:window-width="1920"
     inkscape:window-height="1027"
     inkscape:window-x="-8"
     inkscape:window-y="-8"
     inkscape:window-maximized="1"
     inkscape:current-layer="layer1" />
  <defs
     id="defs4072">
    <clipPath
       clipPathUnits="userSpaceOnUse"
       id="clipPath826">
      <path
         id="path828"
         style="fill:#ff0000;fill-opacity:1;fill-rule:nonzero;stroke:none;stroke-width:0.264583"
         d="M -5.0155893,19.762076 V 204.53322 H 205.84337 V 19.762076 Z M 79.157047,78.931589 c 0.0096,-5.29e-4 0.01974,-1.88e-4 0.02997,0 0.134636,0.0024 0.270462,0.0045 0.397909,0.05478 -0.01979,0.04488 -0.0077,0.0057 0.08888,0.0088 0.161724,0.0051 0.300152,0.07231 0.42168,0.176733 0.100986,0.06921 0.197956,0.143815 0.299723,0.211873 0.0431,0.02881 0.09048,0.05092 0.133326,0.0801 0.09686,0.06598 0.106293,0.0777 0.09043,0.07235 0.01815,0.0097 0.03498,0.01852 0.06459,0.03462 0.185542,0.163436 0.382754,0.318609 0.486275,0.550871 0.01416,0.01995 0.14388,0.202843 0.158131,0.219622 0.09718,0.114446 0.211685,0.179211 0.250113,0.333315 -0.02822,-0.01987 -0.0309,-0.02556 0.0098,0.05426 0.0226,0.04429 0.05089,0.08567 0.07493,0.129191 0.02249,0.04071 0.07389,0.152191 0.111623,0.196371 0.01654,0.01937 0.03908,0.0335 0.05839,0.05012 0.200078,0.166757 0.283012,0.420079 0.417547,0.636138 0.01849,0.03725 0.03762,0.07397 0.05529,0.11162 0.01302,0.02776 0.01868,0.05943 0.03669,0.08423 0.02529,0.03482 0.06183,0.05979 0.09095,0.09147 0.09652,0.105019 0.18692,0.217591 0.260451,0.340032 0.07454,0.07601 0.16443,0.155395 0.221691,0.245465 0.08184,0.12873 0.11761,0.28894 0.21549,0.409276 0.0079,0.0255 0.01998,0.05006 0.02379,0.07648 7.94e-4,0.0054 -0.01304,0.0074 -0.01085,0.01241 0.02886,0.06558 0.193421,0.206457 0.201023,0.214455 0.21513,0.224986 0.172704,0.183859 0.345196,0.432533 0.01045,0.04857 0.02511,0.09639 0.03101,0.145727 0.0024,0.01852 -2.65e-4,0.03847 -0.0072,0.05581 -5.29e-4,0.0013 -0.0026,0.0011 -0.0057,0 0.03635,0.03035 0.02953,0.04738 0.09043,0.158646 -0.0032,0.282943 -0.01863,0.566352 0.0057,0.849043 0.01677,0.286964 0.0415,0.561134 -0.05219,0.838708 -0.01087,0.03221 -0.03303,0.05945 -0.04444,0.09147 -0.01098,0.03083 -0.01482,0.06372 -0.02223,0.0956 -0.0068,0.02905 -0.01085,0.05897 -0.02016,0.08733 -0.03399,0.10356 -0.02011,-0.0095 -0.05943,0.122991 -0.05959,0.200764 -0.07921,0.415912 -0.09715,0.623219 -0.0062,0.05154 -0.0149,0.102732 -0.0186,0.154511 -0.0032,0.04463 0.0039,0.08945 -0.0016,0.133842 -0.02159,0.173212 -0.166502,0.404185 -0.218593,0.567923 -0.03534,0.06234 -0.07444,0.122711 -0.105937,0.187071 -0.220467,0.450485 0.08835,-0.125505 -0.131257,0.351914 -0.06858,0.149098 -0.177355,0.287639 -0.322461,0.365871 -0.17957,0.08989 -0.181737,0.100505 -0.391192,0.158647 -0.196971,0.05467 -0.404016,0.06751 -0.581877,0.17725 -0.09843,0.03152 -0.188965,0.06471 -0.294036,0.07545 -0.06962,0.0071 -0.140343,7.93e-4 -0.210326,0.0011 -0.250899,0.0011 -0.501533,7.94e-4 -0.752408,-0.0036 -0.213276,-0.0047 -0.426435,-0.01201 -0.639752,-0.0036 -0.136684,0.0054 -0.322392,0.02508 -0.455787,0.03359 -0.07509,0.0048 -0.150149,0.0068 -0.225309,0.01035 -0.07303,-0.0088 -0.147468,-0.0097 -0.219109,-0.02635 -0.146836,-0.03424 -0.181904,-0.07732 -0.311092,-0.137459 -0.09114,-0.04243 -0.186888,-0.07477 -0.276468,-0.120407 -0.06301,-0.0321 -0.377722,-0.233957 -0.432533,-0.268716 -0.223192,-0.260151 -0.0058,-0.01691 -0.291455,-0.300757 -0.05296,-0.05263 -0.103132,-0.108601 -0.154511,-0.162779 -0.01442,-0.02408 -0.02506,-0.0507 -0.04289,-0.07235 -0.04943,-0.05998 -0.143565,-0.07569 -0.178284,-0.150379 -0.05028,-0.109482 -0.08159,-0.22239 -0.129191,-0.332795 -0.01728,-0.04011 -0.04233,-0.077 -0.05478,-0.118856 -0.0082,-0.02757 -0.004,-0.05761 -0.0062,-0.0863 -0.02458,-0.115277 -0.172474,-0.514263 -0.115755,-0.606682 0.0049,0.0092 0.01431,0.03778 0.01498,0.02739 0.0037,-0.05701 -0.05334,-0.100925 -0.07803,-0.152445 -0.123891,-0.258516 -0.05747,-0.104759 -0.09405,-0.315743 -0.0081,-0.04649 -0.02183,-0.09202 -0.03256,-0.137975 -0.01281,-0.05657 -0.03024,-0.112059 -0.03824,-0.1695 -0.02074,-0.149021 0.01537,-0.324001 5.29e-4,-0.475422 -1.98e-4,-0.250433 -0.0075,-0.50106 0.0011,-0.751377 0.02609,-0.240003 -0.0217,-0.477869 -0.03824,-0.716751 0.0048,-0.07051 -0.0041,-0.143684 0.01447,-0.211873 0.0199,-0.07318 0.06574,-0.13634 0.0987,-0.204639 0.0089,2.09e-4 0.02085,0.0075 0.02635,5.29e-4 0.08582,-0.10823 0.09689,-0.267613 0.124023,-0.394806 0.04838,-0.132196 0.01368,-0.02207 0.04548,-0.184486 0.02817,-0.143862 0.06573,-0.281443 0.113689,-0.420129 0.02066,-0.05976 0.04309,-0.118814 0.06459,-0.178284 0.02498,-0.185121 0.0534,-0.376682 0.108519,-0.556038 0.02503,-0.08146 0.08922,-0.155874 0.09922,-0.243914 0.01831,-0.127651 0.03382,-0.265901 0.06976,-0.390673 0.06424,-0.222859 0.0058,0.02156 0.06718,-0.148828 0.01304,-0.03623 0.01995,-0.07444 0.02997,-0.11162 0.01876,-0.03724 0.03304,-0.07703 0.05633,-0.111623 0.05933,-0.08813 0.214937,-0.241847 0.294555,-0.306959 0.01421,-0.01162 0.03341,-0.01513 0.05013,-0.02273 0.0067,-0.0067 0.01344,-0.01347 0.02016,-0.02016 0.01371,-0.08211 0.04322,-0.267509 0.06305,-0.330729 0.116668,-0.371969 0.338802,-0.710686 0.667142,-0.930693 0.07539,-0.05051 0.159877,-0.08473 0.244948,-0.117824 0.01093,-0.07172 0.08297,-0.138321 0.216006,-0.144693 z m 0.06304,0.330729 c -0.03235,0.02953 -0.07184,0.05686 -0.119373,0.07958 -0.393218,0.187966 -0.640609,0.488246 -0.763777,0.903822 -0.0016,0.0057 -0.04176,0.245113 -0.04496,0.264583 -0.01807,0.04016 -0.02687,0.08552 -0.05374,0.120404 -0.03772,0.04896 -0.09122,0.0834 -0.135911,0.126093 -0.07863,0.07511 -0.111006,0.110299 -0.183967,0.190169 -0.07558,0.08272 -0.07886,0.04498 -0.0677,0.09612 -0.0051,0.02241 -0.0076,0.04558 -0.0155,0.06718 -0.0053,0.01458 -0.07034,0.152154 -0.08062,0.189653 -0.0026,0.0097 0.0016,0.02008 0,0.02997 -0.06489,0.368647 0.0038,-0.103669 -0.04961,0.284221 -0.0047,0.119493 -0.09725,0.239625 -0.131257,0.347781 -0.0099,0.03159 -0.0065,0.06621 -0.01291,0.0987 -0.07058,0.360553 -0.01672,-0.01714 -0.06305,0.350367 -0.02649,0.08085 -0.05248,0.16206 -0.07907,0.242879 -0.0195,0.05929 -0.0416,0.117798 -0.05891,0.177766 -0.02765,0.09582 -0.03473,0.19785 -0.05891,0.294039 -0.01114,0.04436 -0.02756,0.08713 -0.04134,0.130741 -0.02453,0.1465 -0.05011,0.313537 -0.141079,0.437185 -0.03289,0.0447 -0.09069,0.06801 -0.121438,0.114204 -0.0093,0.01389 0.01183,0.03144 0.01344,0.04806 0.0038,0.03892 0.0016,0.07822 0.0026,0.117306 0.02815,0.24566 0.06121,0.492114 0.03669,0.739489 -0.0053,0.239011 7.94e-4,0.478213 0.0011,0.71727 0.01511,0.14842 -0.02148,0.330382 -5.3e-4,0.475421 0.0044,0.03023 0.0186,0.05773 0.02791,0.08682 0.01132,0.04837 0.02498,0.09628 0.03359,0.145209 0.0094,0.05362 0.0052,0.109916 0.02016,0.162266 0.01857,0.06513 0.07259,0.114591 0.102838,0.175183 0.04989,0.09993 0.03597,0.08659 0.04237,0.207738 -0.0083,0.0291 -0.02511,0.05707 -0.02532,0.08733 -6.1e-5,0.0082 0.02048,-0.0036 0.02429,0.0036 0.01437,0.02758 0.01759,0.05966 0.02479,0.08992 0.02603,0.109818 0.05888,0.214011 0.08475,0.324527 0.0044,0.04288 0.006,0.08562 0.01291,0.128157 0.0016,0.01011 -0.0032,-0.03859 0.0031,-0.03049 0.0078,0.01013 0.07904,0.181951 0.07958,0.183451 0.06874,0.19395 0.0036,0.05926 0.06976,0.186034 -0.0016,-0.0118 -0.01566,-0.04016 -0.0047,-0.03566 0.08785,0.03598 0.143463,0.148169 0.197922,0.210838 0.105987,0.121984 0.165753,0.152951 0.283186,0.274402 0.05024,0.05197 0.09507,0.108858 0.142626,0.163298 0.127273,0.05073 0.232916,0.140851 0.353984,0.202571 0.07582,0.03866 0.158355,0.06307 0.235646,0.0987 0.203205,0.09368 0.203393,0.125859 0.431498,0.139009 0.431525,-0.04548 0.863314,-0.05146 1.296561,-0.04186 0.24806,0.0044 0.496052,0.0052 0.744141,0.0041 0.06971,-2.64e-4 0.139909,0.0053 0.209288,-0.0016 0.02713,-0.0027 0.163859,-0.04901 0.193789,-0.05891 0.184756,-0.113921 0.406783,-0.12895 0.61133,-0.185518 0.170704,-0.04721 0.174599,-0.057 0.313161,-0.130225 0.03047,-0.02085 0.06584,-0.03647 0.09147,-0.06305 0.01416,-0.01468 0.01344,-0.03847 0.02326,-0.05633 0.0236,-0.04285 0.05686,-0.08047 0.077,-0.125058 0.01564,-0.03462 0.01955,-0.07339 0.02945,-0.110072 0.02545,-0.064 0.04663,-0.130154 0.07648,-0.192235 0.03719,-0.07732 0.08257,-0.150191 0.124023,-0.225309 0.120208,-0.280382 0.02727,-0.05566 0.123505,-0.30489 0.0114,-0.02952 0.06056,-0.13322 0.06356,-0.18397 7.93e-4,-0.01339 -0.0055,-0.02617 -0.0083,-0.03927 0.0068,-0.06757 0.01336,-0.135004 0.02016,-0.202573 0.01984,-0.218162 0.03887,-0.44455 0.101804,-0.655772 0.01389,-0.04659 0.0356,-0.09021 0.05478,-0.134877 0.02588,-0.06031 0.04796,-0.08421 0.02119,-0.05374 0.009,-0.04063 0.01416,-0.08248 0.02739,-0.121954 0.06461,-0.192977 0.06895,-0.104082 0.09819,-0.294556 0.02727,-0.177416 0.0011,-0.366447 -0.0093,-0.543636 -0.02275,-0.26543 -0.01175,-0.531165 -0.0072,-0.796851 -0.02577,-0.03261 -0.05507,-0.06368 -0.06976,-0.10232 -0.04819,-0.126846 0.0047,-0.107071 -0.0047,-0.220141 -5.29e-4,-0.0065 -0.01167,-0.0056 -0.01757,-0.0083 -0.112411,-0.134684 -0.137494,-0.168833 -0.274403,-0.310576 -0.05544,-0.05739 -0.177564,-0.156385 -0.221175,-0.238744 -0.0096,-0.01807 -0.0491,-0.143073 -0.06356,-0.188103 -0.09258,-0.106836 -0.127773,-0.249042 -0.199472,-0.367419 -0.0071,-0.0118 -0.02307,-0.01529 -0.03307,-0.02479 -0.04361,-0.04157 -0.08285,-0.08725 -0.125058,-0.130226 -0.08418,-0.123888 -0.172911,-0.245038 -0.274918,-0.355017 -0.02371,-0.02556 -0.05411,-0.04502 -0.07441,-0.07338 -0.05606,-0.07833 -0.110858,-0.194448 -0.15503,-0.283186 -0.02831,-0.04743 -0.05644,-0.09468 -0.08475,-0.142111 -0.03379,-0.06869 -0.06353,-0.139588 -0.101285,-0.206189 -0.01942,-0.03426 -0.04715,-0.06337 -0.06976,-0.0956 -0.04822,-0.06876 -0.02328,-0.04484 -0.07286,-0.08165 -0.122182,-0.08643 -0.182922,-0.222266 -0.253733,-0.3483 -0.03659,-0.06513 -0.0963,-0.150799 -0.114205,-0.226859 -0.004,-0.01696 -0.0058,-0.03426 -0.0067,-0.05168 -0.01984,-0.02122 -0.04018,-0.04226 -0.06046,-0.06305 -0.109405,-0.112114 -0.19871,-0.232103 -0.289388,-0.359669 -0.09125,-0.212614 -0.267562,-0.346107 -0.435634,-0.494025 -0.0045,0.0013 -0.0095,0.0067 -0.01344,0.0041 -0.09041,-0.05934 -0.05829,-0.05666 -0.126608,-0.0987 -0.142729,-0.08782 -0.277463,-0.184788 -0.415994,-0.279569 -0.07118,-0.06003 -0.12696,-0.107162 -0.21704,-0.119372 -0.02928,-0.004 -0.05974,0.01 -0.08888,0.0052 -0.04638,-0.0077 -0.09092,-0.02387 -0.136427,-0.03566 -0.0793,-0.0309 -0.162984,-0.03243 -0.246497,-0.03256 z" />
    </clipPath>
  </defs>
  <g
     inkscape:label="Layer 1"
     inkscape:groupmode="layer"
     id="layer1"
     transform="translate(5.7313078,-9.4588296)">
    <path
       style="fill:#2b1100;fill-opacity:1;fill-rule:nonzero;stroke:none;stroke-width:0.0352776"
       d="m 4.9698473,71.241619 -0.023771,0.379305 c 0.0445,-0.0122 0.089392,-0.02308 0.1338419,-0.03462 -0.0361,-0.116099 -0.074001,-0.231397 -0.1100708,-0.344682 z"
       transform="translate(-1.4552083,-1.3890624)"
       id="path840" />
    <path
       style="fill:#2b1100;fill-opacity:1;fill-rule:nonzero;stroke:none;stroke-width:0.0352776"
       d="m 37.272784,81.816167 c 0.02557,0.04884 0.05158,0.09746 0.077,0.146244 0.05037,-0.01149 0.08559,-0.01952 0.13591,-0.03101 -0.0021,-0.0012 -0.0035,-0.0019 -0.0057,-0.0031 -0.07943,-0.02573 -0.146862,-0.06475 -0.207222,-0.112138 z"
       id="path910" />
    <path
       style="fill:#2b1100;fill-opacity:1;fill-rule:nonzero;stroke:none;stroke-width:0.0352776"
       d="m 54.373031,114.41728 c -0.005,6e-4 -0.01,10e-4 -0.01499,0.002 0.0023,6.1e-4 0.006,0.001 0.0083,0.002 0.0022,-10e-4 0.0046,-0.003 0.0067,-0.004 z"
       id="path950" />
    <path
       style="fill:#2b1100;fill-opacity:1;fill-rule:nonzero;stroke:none;stroke-width:0.0352776"
       d="m 54.636581,113.99663 c -0.01062,0.0236 -0.03278,0.0587 0.0036,0.0553 0.0012,-0.0194 -5.07e-4,-0.0374 -0.0036,-0.0553 z"
       id="path948" />
    <path
       style="fill:#2b1100;fill-opacity:1;fill-rule:nonzero;stroke:none;stroke-width:0.0352776"
       d="M 50.224447,48.172744 C 53.954814,50.753656 68.876122,61.077134 83.79759,71.400782 53.954654,50.753485 46.49408,45.591832 50.224447,48.172744 Z"
       id="path659" />
    <path
       style="fill:#2b1100;fill-opacity:1;fill-rule:nonzero;stroke:none;stroke-width:0.0352776"
       d="m 179.69096,142.18302 c -2.7e-4,0.003 -2.3e-4,0.004 -5.2e-4,0.007 -0.004,0.008 -0.006,0.0138 -0.01,0.0212 0.007,-0.005 0.0143,-0.009 0.0217,-0.0129 -0.004,-0.005 -0.009,-0.0116 -0.0112,-0.0153 z"
       id="path1411"
       sodipodi:nodetypes="ccccc" />
    <path
       style="fill:#2b1100;fill-opacity:1;fill-rule:nonzero;stroke:none;stroke-width:0.0352776"
       d="m 142.91594,63.230739 c 0.0341,0.0031 0.074,0.01105 0.0925,0.0016 -0.0307,8.8e-4 -0.0617,-7.49e-4 -0.0925,-0.0016 z"
       id="path1614" />
    <path
       style="fill:#2b1100;fill-opacity:1;fill-rule:nonzero;stroke:none;stroke-width:0.0352776"
       d="m 108.65757,76.257333 c -9.2e-4,0.002 -0.002,0.0042 -0.003,0.0062 -1.3e-4,2.6e-4 -9e-4,0.0013 -0.001,0.0016 -4.5e-4,8.77e-4 -9.9e-4,0.002 -0.002,0.0031 -0.003,0.0081 -0.004,0.01734 -0.006,0.02584 0.004,-0.01317 0.008,-0.02346 0.0114,-0.03669 z"
       id="path1906" />
    <path
       style="fill:#2b1100;fill-opacity:1;fill-rule:nonzero;stroke:none;stroke-width:0.0352776"
       d="m 109.46321,76.578244 c -1.9e-4,6.86e-4 -3.4e-4,0.0014 -5.2e-4,0.0021 -10e-4,0.0021 0.004,0.0074 0.004,0.0052 -2.5e-4,-0.0015 -5.9e-4,-0.0032 -0.001,-0.0046 v -5.17e-4 c -6.4e-4,-7.32e-4 -10e-4,-0.0013 -0.002,-0.0021 z"
       id="path2008" />
    <path
       style="fill:#2b1100;fill-opacity:1;fill-rule:nonzero;stroke:none;stroke-width:0.0352776"
       d="m 168.27873,39.969111 c 0.17545,-0.06767 0.23892,-0.09751 0.0584,-0.06201 -0.0185,0.02156 -0.0397,0.04068 -0.0584,0.06201 z"
       id="path2176" />
    <path
       style="fill:#2b1100;fill-opacity:1;fill-rule:nonzero;stroke:none;stroke-width:0.0352776"
       d="m 154.16538,33.258409 c -106.597792,-15.866386 -53.2989,-7.933193 0,0 z"
       id="path2174"
       sodipodi:nodetypes="cc" />
    <path
       style="fill:#2b1100;fill-opacity:1;fill-rule:nonzero;stroke:none;stroke-width:0.0352776"
       d="m 102.04557,28.889167 c -0.003,0.01193 0.0137,0.05304 0.0295,0.09819 -0.0138,-0.05553 -0.0262,-0.112661 -0.0295,-0.09819 z"
       id="path2375" />
    <path
       style="fill:#2b1100;fill-opacity:1;fill-rule:nonzero;stroke:none;stroke-width:0.0352775"
       d="m 151.15261,29.455357 c -0.17061,0.23777 -0.26095,0.788305 -0.18864,1.027065 2.1962,7.249588 -1.3184,4.435063 -1.6935,11.994643 0.58021,3.449189 1.71275,8.464056 -0.44574,7.001829 -7.93257,-6.644931 -2.3375,-8.413499 -2.43294,-15.131112 -2.21647,4.703894 -2.53077,4.26743 -4.3233,7.759267 -6.76957,-4.291218 -8.32487,-12.146003 -7.15685,-7.74374 2.78963,10.514071 10.51568,13.717272 11.94515,18.410307 3.8521,6.764018 2.83261,12.504172 2.04024,21.574565 -0.1742,1.993874 -1.53082,3.79356 -1.75524,6.453505 -7.3118,-10.54415 -12.92252,-12.641343 -15.3299,-15.646626 -4.04529,-5.050011 -2.48652,-5.59005 -2.47567,-12.062379 0.009,-5.242674 1.0744,-12.644574 1.58602,-15.331443 0.50409,-2.647331 -0.21547,-4.616029 -1.08917,-6.738413 -1.0518,2.234369 -0.90489,13.278 -1.73894,15.044206 -3.29272,-4.794214 -4.98117,-11.83462 -9.06737,-13.021905 11.31845,20.632868 9.40189,30.453644 4.38618,26.647007 -12.4838,-9.474496 -5.4873,-16.541009 -17.01914,-22.707987 -1.09697,-0.669925 1.39995,-0.456546 8.17226,15.937744 7.38133,17.8686 18.44827,10.207477 31.96554,34.368236 1.89685,9.731857 1.65454,22.110314 -0.0209,30.383404 -2.99995,-2.88544 -5.3513,-5.61874 -8.16994,-7.72433 -2.53321,-1.89278 -5.57151,-3.1157 -8.4106,-4.59035 -6.45569,-4.29276 -10.26814,-2.38018 -13.69033,-6.148407 -5.81159,-8.04333 -14.41822,-23.189267 -13.41546,-32.975529 1.36118,-6.872446 -2.48142,-27.383841 -9.005263,-27.198191 3.30003,8.433699 3.14334,4.584723 5.90542,15.561233 1.008583,4.008067 1.879703,9.367582 -1.4618,9.269197 -7.43811,-0.219 -7.37351,-1.498261 -10.16196,-2.244324 -6.679449,-1.787125 -7.280881,-1.865018 -14.472058,-8.674544 3.038386,4.012527 2.527495,6.739611 7.61953,9.10074 9.581008,4.442624 16.598968,3.56907 18.220878,8.515398 5.161763,15.741626 1.319053,14.536421 13.063833,28.90997 -20.223763,-0.10131 -18.800483,-0.42848 -26.346237,-3.62937 -3.293965,-1.74207 -16.406931,-6.40304 -15.836046,-7.78643 C 68.470141,76.187575 64.437015,69.735817 63.08212,67.927161 50.060298,50.544256 59.586538,62.032282 51.393057,52.609724 c 0.422872,1.607676 3.108476,7.660224 3.72873,8.670245 6.141653,10.001046 17.768252,28.973884 7.632638,26.143594 -14.834142,-5.142108 -22.6837,-4.619143 -25.752185,-7.778584 7.636158,8.773404 24.517884,7.654302 36.420477,14.736334 6.185397,3.21048 20.28411,6.114097 19.07311,8.562327 -8.352845,2.42947 -18.294122,6.95273 -23.952543,11.38606 -12.43983,9.74653 -27.870294,6.2601 -41.896189,5.14372 -6.259462,-0.49822 -5.958852,-1.72688 -18.0988547,-5.22431 -5.911725,-1.03368 14.6832167,9.99197 23.0984117,10.2092 11.463005,0.29591 10.791758,1.69042 30.430826,-2.21626 1.319505,1.29251 -0.630779,-1.66282 -4.135518,8.82198 -4.762632,11.87518 -16.346633,11.48222 -23.371413,13.92805 23.472537,4.4951 26.714764,-13.8798 35.420957,-23.57824 7.885968,-7.3645 13.97148,-11.98352 20.690723,-13.5505 1.58575,-0.38256 -6.645692,18.17101 -10.931165,22.15118 9.687755,-6.07313 10.629515,-12.16709 15.205895,-19.01404 5.498333,-9.39988 12.845843,-8.4815 18.561323,-6.79054 11.37894,3.50657 22.46253,7.21702 29.42016,16.29007 1.60356,2.13617 3.23006,5.35969 3.32495,7.29114 0.2544,5.23296 4.54294,28.39191 -4.72487,36.35903 -6.24189,5.36589 -16.47157,-0.0373 -24.68814,-0.529 -13.56029,-0.81151 -27.489673,4.81972 -41.840122,3.91616 -11.728967,-0.73852 -13.88488,-13.14802 -31.134052,-16.54381 1.439963,1.94494 9.352241,7.05599 10.997968,8.04154 11.370759,6.80947 12.996592,8.70483 7.715908,9.27802 -14.879603,1.61507 -15.284931,0.71578 -18.416337,1.14704 -30.820981,4.24455 -31.433483,15.89273 -33.65886,17.70425 9.346287,-9.82134 27.748786,-12.87028 41.792628,-14.09689 17.283154,-1.50955 36.728184,-1.78631 16.245748,15.07089 -21.625122,15.2686 -23.300499,21.45838 -27.765441,24.7268 7.545521,-3.53665 6.635699,-5.80184 18.914346,-13.70208 37.183121,-23.92411 9.209512,-27.92555 55.769734,-27.70865 11.70666,0.87536 22.23616,0.64702 24.19958,14.6713 1.38877,9.91962 2.49649,27.6381 1.95189,37.63965 -0.57949,18.96985 -5.65551,37.9173 -13.56689,46.08283 -9.15427,9.22035 -7.07855,4.15609 -17.41506,12.87828 -13.649013,15.04056 -11.496433,4.41157 -18.835733,22.86248 -1.53416,3.85699 5.59829,-8.83618 9.433003,-9.90888 1.36196,-0.381 -5.190623,11.01204 -3.501963,10.57651 2.724873,-0.70279 3.668553,-3.93859 4.776663,-5.92793 -0.19837,-5.71995 6.42994,-13.34052 11.93197,-15.31748 4.01195,-3.73259 7.87927,-7.27165 7.41846,-4.45216 -0.59656,3.64982 -3.999,6.16366 -8.06126,7.0994 -3.32185,0.76353 -5.58463,3.09576 -7.55742,5.73774 -0.18432,0.24691 -2.21326,6.59343 -2.07974,6.87116 1.5066,-0.72863 5.13965,-7.83699 6.64525,-8.56275 0.55244,-0.60962 4.32922,-1.40389 4.02053,-0.64434 -4.41855,10.86941 -7.56352,7.00032 -10.6914,15.90203 5.64887,-5.22225 9.69682,-8.28229 10.81251,-11.25268 -0.0996,-6.047 11.683,-13.31939 9.38798,-9.21176 -7.68348,13.75324 0.32432,-0.40118 -12.92719,18.05941 -0.18758,0.26139 4.98498,-3.98808 5.22304,-3.76745 4.31549,-4.45801 4.67061,-6.40293 2.36388,1.48974 3.36794,-2.86283 3.03473,-10.79231 6.84864,-12.31312 3.59187,-1.35765 5.27029,-3.27369 7.12347,-5.88447 0.78846,-1.10985 1.10584,-2.73168 2.09372,-4.34193 -1.02131,7.34488 -4.05956,9.24039 -7.13511,13.69808 -1.03247,1.37798 -5.77431,9.18925 -7.06912,10.37079 4.71919,0.66923 8.45687,-11.49656 12.69119,-12.34806 0.38503,3.90178 -4.76363,8.87862 -6.85175,12.98697 -1.47392,2.90012 7.08791,-8.57963 10.0098,-9.76759 1.50741,0.64678 -3.94968,11.06651 -1.68227,10.98175 0.77019,-1.30635 2.98108,-8.27957 4.1921,-9.05184 0.78568,-0.50068 9.82018,10.36239 9.94226,9.01689 0.21752,-2.38791 -11.22509,-14.80926 -6.36888,-17.19071 2.04,2.16467 2.6928,6.95156 5.00956,8.76304 2.57899,3.02417 5.83274,6.3613 9.49123,7.8959 -2.20225,-3.23813 -7.85546,-9.70056 -10.01058,-14.44101 2.9095,1.383 11.05062,11.28907 14.12039,12.26655 2.33725,0.74414 -10.65049,-11.86676 -11.40949,-12.91245 -2.37942,-4.72216 -4.07998,-10.67435 -0.91607,-5.30999 5.32491,9.02806 6.85057,9.5932 13.80444,14.2547 2.48514,1.66603 8.38827,3.08332 5.72764,1.70246 -11.34131,-5.88612 -13.18469,-10.02058 -17.332,-19.89228 6.21433,3.51342 4.3792,3.21254 9.45009,8.59069 2.68879,2.85216 9.02938,12.16584 13.35883,13.07392 -10.18092,-14.177 -11.13944,-10.55513 -10.32733,-14.28342 0.63081,-2.89597 11.4181,12.12244 13.66314,10.26366 -1.76812,-2.8822 -15.63868,-18.42318 -12.26189,-17.45078 6.74647,1.94276 14.37522,19.66566 19.72072,20.88442 1.42873,0.32572 -8.94837,-11.42389 -7.15063,-11.63619 4.28112,-0.50557 9.82467,7.55442 10.31023,7.1553 2.39262,-1.9665 -11.62603,-11.44894 -8.93927,-14.92233 0.84096,-1.08694 3.98002,4.49857 4.79066,5.39305 3.76603,4.15662 5.97644,5.92348 9.7536,10.06804 1.24894,1.3673 4.0838,6.81863 5.79832,6.0405 0.39196,-4.28528 -11.55085,-14.04316 -10.67434,-14.10952 9.85035,-0.74584 9.09347,14.00585 16.44157,13.62123 -0.75111,-1.20091 -2.58517,-2.99063 -3.69991,-4.77591 -7.60215,-8.86058 7.29075,1.94707 6.09249,0.23756 -2.85006,-4.067 -19.38962,-12.44169 -17.00361,-11.50188 12.0642,-1.58658 13.12023,6.67731 17.16666,8.35394 5.19295,2.1513 -0.19815,-1.82957 -1.68926,-3.94757 -0.22401,-0.31823 -8.46635,-7.42578 -12.67567,-8.961 -16.36713,-5.96952 -18.12585,-6.89205 -20.5343,-8.26854 -5.76305,-3.29319 -15.54308,-7.31114 -16.80877,-18.12461 -1.87366,-14.14738 -0.9157,-32.30543 -1.29636,-44.21126 -0.25125,-7.56006 -0.21808,-14.12342 3.56206,-20.64586 6.64016,-11.45724 12.61275,-15.88353 26.65823,-17.63099 19.0333,-2.36801 41.14974,2.80052 50.91049,11.68978 5.5408,5.20342 5.91346,5.36926 12.91812,13.01256 0.1872,-0.11613 4.71545,7.69531 11.87062,10.00203 8.42089,3.01884 22.3159,4.51047 9.83748,0.85162 -7.91289,-2.32016 -12.5988,-5.44115 -15.94162,-9.07589 -11.71851,-12.74185 -9.66901,-10.01289 -13.216,-16.16831 6.75084,0.81666 12.44957,0.46883 18.65951,-0.25696 22.13222,-2.5867 23.70977,-4.62812 29.77013,-8.3151 12.02504,-7.31576 9.61637,-9.0585 4.78985,-6.50553 -5.21267,2.5339 -6.41186,4.84214 -11.72933,7.17703 -12.03799,5.28586 -15.72987,3.09221 -27.82059,4.82546 -4.64225,0.66549 -12.42646,0.46835 -16.68556,-1.51154 -21.71445,-10.09432 -42.57656,-15.44869 -60.27427,-11.06895 -7.05895,1.74692 -7.1344,0.55281 -18.79894,5.69549 -1.87227,0.82546 -4.58686,-6.73227 -4.47048,-13.10524 0.12529,-6.86161 0.8474,-15.34033 1.01851,-21.3735 0.14602,-5.14804 0.88981,-7.40111 3.69275,-11.41237 2.20867,-3.16065 2.41564,-3.42193 8.65126,-7.68085 19.72294,-15.28829 36.77402,-13.13027 43.62734,-12.48159 13.54027,1.28163 25.64488,14.37224 25.95065,25.92504 1.15449,5.75419 0.89953,15.13468 7.29502,24.07352 3.96506,5.54192 7.00866,7.9985 11.6587,7.54733 -14.08638,-13.71292 -14.48603,-18.30302 -16.31891,-38.38334 3.28222,2.20514 6.25492,3.97482 10.09209,5.31465 17.81949,7.51545 28.93333,3.28805 42.57466,1.82589 11.99786,-3.64151 -9.24382,-0.10516 -13.85026,-0.44793 -8.26328,-0.61486 -16.96086,0.10252 -24.69067,-2.88245 -8.1005,-3.12809 -17.31315,-9.85529 -21.18952,-15.15366 13.40854,1.70304 25.31137,0.34608 38.28631,-3.43986 5.5594,-0.28156 12.77845,-4.90907 17.63709,-6.69493 1.12837,-0.41474 3.7687,-0.95182 6.14298,-2.70391 -9.92113,0.47491 -11.61966,4.13254 -17.62934,5.43653 -5.20134,1.1286 -18.53307,4.88336 -15.83604,2.04171 11.34299,-15.022417 18.98437,-20.367417 31.89334,-18.782157 -0.98094,-1.53955 -4.87068,-2.4248 -6.27572,-2.33515 -17.22339,1.09888 -14.98119,7.45938 -30.51617,21.829197 -7.81542,3.14589 -12.862,3.48088 -24.40811,2.10457 -15.23637,-9.36575 -15.35735,-8.18793 -24.40579,-9.42444 11.48468,-10.590467 21.90513,-14.251697 31.63406,-14.976667 9.16559,-0.68302 17.38075,-3.143719 24.24198,-5.086419 5.30183,-3.667305 5.4516,-3.675687 13.30448,-7.174703 -6.31805,-0.404015 -13.83661,5.82152 -21.50547,7.616425 -10.63044,2.488052 -31.51816,6.267097 -22.30741,-3.027628 5.37137,-9.662015 14.4873,-10.314388 27.27195,-12.521957 17.85422,-0.802608 13.16224,-4.036833 -14.08546,0.488302 -13.97576,4.106454 -19.90311,17.73039 -21.23609,18.50191 -7.90444,4.79281 -16.32208,12.251397 -24.3662,15.325227 -1.09473,0.17043 -4.49083,1.4394 -5.93959,1.69393 -1.44878,0.25451 -10.72479,2.30565 -10.72479,2.30565 -1.50067,-1.21545 3.15372,-4.23624 5.32163,-7.18324 1.35416,-1.840617 5.29644,-5.391647 8.75141,-9.252117 10.35093,-7.790271 9.55492,-8.936511 11.6618,-10.501216 6.91719,-5.137142 14.98015,-10.936203 19.5647,-14.358719 4.68635,-3.498573 10.28314,-5.171371 14.97122,-7.834569 -1.23365,0.327738 -7.95909,0.574329 -19.34577,8.941594 -2.47295,2.45054 -10.32679,7.414018 -12.87983,7.602451 4.38665,-10.590057 2.56091,-23.46083 9.42134,-27.916283 0.54669,-0.123605 5.75525,-3.859515 6.18569,-4.123007 -4.60511,1.59617 -7.06435,2.251768 -9.31965,4.951336 -3.83967,4.59583 -3.83392,9.451257 -5.47303,17.112307 -1.54449,9.893757 -3.21291,12.778326 -7.8237,16.124061 -1.26144,-7.3173 -4.4665,-14.891126 -4.28992,-16.299506 -2.91058,-6.296345 -0.66518,-8.750488 3.84586,-11.30392 3.30988,-3.220756 8.46164,-6.721149 10.12858,-10.29937 -1.80731,1.74399 -13.42625,11.195597 -15.41683,11.726235 1.69287,-7.220376 1.67369,-10.489185 6.17869,-13.389101 0.7532,-0.484835 3.36975,-1.435553 3.17901,-2.62705 -9.48319,3.978743 -9.66126,10.417419 -11.22552,17.035452 -2.10027,8.88614 5.03284,20.319877 3.23646,27.201297 -1.27965,3.29083 -5.26682,6.863178 -8.27551,9.708598 -2.93087,2.77179 -5.54339,5.14054 -9.38642,9.407377 -8.79153,10.69173 -18.55319,13.13388 -28.63903,18.9871 0.46609,-20.05187 -3.5609,-39.954829 10.72091,-40.55002 7.5672,-0.763113 10.13642,0.487002 20.70819,-0.881116 3.1764,-0.171366 10.5101,-3.062706 10.85676,-7.448743 -10.09171,10.486697 -20.19801,5.004511 -37.71958,3.975509 14.63348,-7.319013 16.74677,-16.025127 24.90651,-24.389484 3.35278,-3.898596 15.24182,-9.838926 12.06935,-13.585509 -1.11204,7.142868 -10.95472,4.350397 -19.7347,18.709187 -3.95602,7.252869 -16.06211,17.173332 -24.33823,19.938872 0.23039,-2.893306 -0.40347,-7.282808 0.76312,-9.862305 3.40041,-3.505345 11.88915,-11.150927 14.60403,-14.854008 2.30191,-3.139833 7.20591,-4.419197 10.25356,-6.243123 22.37961,-13.393573 -3.79893,-0.04778 -5.48311,0.699459 -7.93254,3.519564 -15.01791,15.456309 -19.77273,16.93686 0.26977,-3.04417 0.60613,-5.614378 0.67617,-7.637384 0.28382,-8.199888 11.06903,-11.26372 12.00414,-13.819957 1.27412,-3.482956 0.82213,-4.475843 0.44018,-5.946572 -2.55378,9.456857 -3.9026,5.419516 -12.09109,13.223746 -1.72325,0.872636 -3.6965,-3.817518 -1.2918,-10.360697 0.6344,-1.726235 0.31202,-4.479744 -0.0993,-6.286597 -0.74134,-2.211953 -1.41564,-2.049234 -1.18232,-3.140971 z m 4.69283,247.099463 3.87615,2.82655 c 1.28789,1.35284 3.25359,3.14387 1.9726,5.01656 -2.22136,3.24764 -5.11276,-6.07296 -5.84875,-7.84311 z m -21.73914,0.57991 -2.08907,2.75668 c -0.34335,1.83566 -1.6593,5.30156 -3.33659,4.39784 -3.71674,-2.00259 2.08549,-6.28748 5.42566,-7.15452 z m 37.1257,2.31807 c 0.49665,0.0246 1.29653,0.31531 2.4454,0.95875 l 4.39626,6.57072 c -5.45632,-2.75466 -8.99383,-7.63645 -6.84166,-7.52947 z m -30.84687,2.41666 v 7.8e-4 c 0.25213,0.28384 -0.4924,4.86534 -0.14983,4.3753 l -2.34059,4.09119 c -2.18691,-1.52649 0.53415,-6.87528 2.42598,-8.4626 0.0263,-0.0221 0.0476,-0.0245 0.0645,-0.004 z"
       id="path2170"
       sodipodi:nodetypes="ccccccscscscscccscscccccccssscsscccscsccccsacsccccccccccasscssscsccscscccsssccscsccccccscccccccccccccccccccccscccscssscccccccccccsccccsscccsscsscsscssssccscsccccaaccscsccscccsccscccccscccssccccccccccccscccscccccccccccscsccsccscccccccccscsccsccccscc" />
    <path
       style="fill:#2b1100;fill-opacity:1;fill-rule:nonzero;stroke:none;stroke-width:0.0352776"
       d="m 105.98228,20.833845 5.2e-4,5.17e-4 5.2e-4,-5.17e-4 z"
       id="path796"
       sodipodi:nodetypes="cccc" />
    <path
       style="fill:#2b1100;fill-opacity:1;fill-rule:nonzero;stroke:none;stroke-width:0.0352776"
       d="m 105.9828,20.833329 5.2e-4,5.16e-4 5.1e-4,-5.16e-4 z"
       id="path838" />
    <path
       style="fill:#2b1100;fill-opacity:1;fill-rule:nonzero;stroke:none;stroke-width:0.0352776"
       d="m 102.19078,19.762076 v 5.17e-4 h 5.2e-4 c 3.3e-4,-1.89e-4 8.2e-4,-3.28e-4 0.001,-5.17e-4 z"
       transform="translate(-1.4552083,-1.3890624)"
       id="path158-4" />
  </g>
</svg>
